<?xml version="1.0" encoding="utf-8" ?>
<svg xmlns="http://www.w3.org/2000/svg" xmlns:xlink="http://www.w3.org/1999/xlink" width="596" height="596">
	<path fill="#0F0F12" transform="matrix(17.0079 0 -0 -17.0079 297.638 297.638)" d="M14.5 0Q14.5 0.35595503 14.482534 0.71148121Q14.465069 1.0670074 14.43018 1.4212484Q14.395288 1.7754893 14.34306 2.1275916Q14.290829 2.4796939 14.221386 2.8288093Q14.151943 3.1779246 14.065453 3.523212Q13.978964 3.8684995 13.875635 4.2091274Q13.772306 4.5497551 13.652389 4.884902Q13.532471 5.2200499 13.396252 5.5489092Q13.260034 5.8777685 13.107843 6.1995478Q12.955653 6.5213275 12.787858 6.8352518Q12.620062 7.1491756 12.437063 7.4544883Q12.254066 7.7598009 12.056309 8.0557671Q11.858551 8.3517323 11.646508 8.6376381Q11.434466 8.9235439 11.208652 9.1987019Q10.982836 9.4738579 10.743791 9.7376041Q10.504745 10.001349 10.253048 10.253048Q10.001349 10.504745 9.7376041 10.743791Q9.4738579 10.982836 9.1987019 11.208652Q8.9235439 11.434466 8.6376381 11.646509Q8.3517323 11.858551 8.0557671 12.056309Q7.7598009 12.254066 7.4544888 12.437063Q7.1491756 12.620062 6.8352518 12.787858Q6.5213275 12.955653 6.1995478 13.107843Q5.8777685 13.260034 5.5489092 13.396252Q5.2200499 13.532471 4.8849025 13.652388Q4.5497551 13.772306 4.2091274 13.875635Q3.8684995 13.978964 3.5232122 14.065453Q3.1779246 14.151943 2.8288093 14.221386Q2.4796939 14.290829 2.1275916 14.34306Q1.7754893 14.395288 1.4212484 14.43018Q1.0670074 14.465069 0.71148121 14.482534Q0.35595503 14.5 0 14.5Q-0.35595503 14.5 -0.71148121 14.482534Q-1.0670074 14.465069 -1.4212484 14.43018Q-1.7754893 14.395288 -2.1275916 14.34306Q-2.4796939 14.290829 -2.8288093 14.221386Q-3.1779246 14.151943 -3.523212 14.065453Q-3.8684995 13.978964 -4.2091274 13.875635Q-4.5497551 13.772306 -4.884902 13.652389Q-5.2200499 13.532471 -5.5489092 13.396252Q-5.8777685 13.260034 -6.1995478 13.107843Q-6.5213275 12.955653 -6.8352518 12.787858Q-7.1491756 12.620062 -7.4544883 12.437063Q-7.7598009 12.254066 -8.0557671 12.056309Q-8.3517323 11.858551 -8.6376381 11.646508Q-8.9235439 11.434466 -9.1987019 11.208652Q-9.4738579 10.982836 -9.7376041 10.743791Q-10.001349 10.504745 -10.253048 10.253048Q-10.504745 10.001349 -10.743791 9.7376041Q-10.982836 9.4738579 -11.208652 9.1987019Q-11.434466 8.9235439 -11.646509 8.6376381Q-11.858551 8.3517323 -12.056309 8.0557671Q-12.254066 7.7598009 -12.437063 7.4544888Q-12.620062 7.1491756 -12.787858 6.8352518Q-12.955653 6.5213275 -13.107843 6.1995478Q-13.260034 5.8777685 -13.396252 5.5489092Q-13.532471 5.2200499 -13.652388 4.8849025Q-13.772306 4.5497551 -13.875635 4.2091274Q-13.978964 3.8684995 -14.065453 3.5232122Q-14.151943 3.1779246 -14.221386 2.8288093Q-14.290829 2.4796939 -14.34306 2.1275916Q-14.395288 1.7754893 -14.43018 1.4212484Q-14.465069 1.0670074 -14.482534 0.71148121Q-14.5 0.35595503 -14.5 0Q-14.5 -0.35595503 -14.482534 -0.71148121Q-14.465069 -1.0670074 -14.43018 -1.4212484Q-14.395288 -1.7754893 -14.34306 -2.1275916Q-14.290829 -2.4796939 -14.221386 -2.8288093Q-14.151943 -3.1779246 -14.065453 -3.523212Q-13.978964 -3.8684995 -13.875635 -4.2091274Q-13.772306 -4.5497551 -13.652389 -4.884902Q-13.532471 -5.2200499 -13.396252 -5.5489092Q-13.260034 -5.8777685 -13.107843 -6.1995478Q-12.955653 -6.5213275 -12.787858 -6.8352518Q-12.620062 -7.1491756 -12.437063 -7.4544883Q-12.254066 -7.7598009 -12.056309 -8.0557671Q-11.858551 -8.3517323 -11.646508 -8.6376381Q-11.434466 -8.9235439 -11.208652 -9.1987019Q-10.982836 -9.4738579 -10.743791 -9.7376041Q-10.504745 -10.001349 -10.253048 -10.253048Q-10.001349 -10.504745 -9.7376041 -10.743791Q-9.4738579 -10.982836 -9.1987019 -11.208652Q-8.9235439 -11.434466 -8.6376381 -11.646509Q-8.3517323 -11.858551 -8.0557671 -12.056309Q-7.7598009 -12.254066 -7.4544888 -12.437063Q-7.1491756 -12.620062 -6.8352518 -12.787858Q-6.5213275 -12.955653 -6.1995478 -13.107843Q-5.8777685 -13.260034 -5.5489092 -13.396252Q-5.2200499 -13.532471 -4.8849025 -13.652388Q-4.5497551 -13.772306 -4.2091274 -13.875635Q-3.8684995 -13.978964 -3.5232122 -14.065453Q-3.1779246 -14.151943 -2.8288093 -14.221386Q-2.4796939 -14.290829 -2.1275916 -14.34306Q-1.7754893 -14.395288 -1.4212484 -14.43018Q-1.0670074 -14.465069 -0.71148121 -14.482534Q-0.35595503 -14.5 0 -14.5Q0.35595503 -14.5 0.71148121 -14.482534Q1.0670074 -14.465069 1.4212484 -14.43018Q1.7754893 -14.395288 2.1275916 -14.34306Q2.4796939 -14.290829 2.8288093 -14.221386Q3.1779246 -14.151943 3.523212 -14.065453Q3.8684995 -13.978964 4.2091274 -13.875635Q4.5497551 -13.772306 4.884902 -13.652389Q5.2200499 -13.532471 5.5489092 -13.396252Q5.8777685 -13.260034 6.1995478 -13.107843Q6.5213275 -12.955653 6.8352518 -12.787858Q7.1491756 -12.620062 7.4544883 -12.437063Q7.7598009 -12.254066 8.0557671 -12.056309Q8.3517323 -11.858551 8.6376381 -11.646508Q8.9235439 -11.434466 9.1987019 -11.208652Q9.4738579 -10.982836 9.7376041 -10.743791Q10.001349 -10.504745 10.253048 -10.253048Q10.504745 -10.001349 10.743791 -9.7376041Q10.982836 -9.4738579 11.208652 -9.1987019Q11.434466 -8.9235439 11.646509 -8.6376381Q11.858551 -8.3517323 12.056309 -8.0557671Q12.254066 -7.7598009 12.437063 -7.4544888Q12.620062 -7.1491756 12.787858 -6.8352518Q12.955653 -6.5213275 13.107843 -6.1995478Q13.260034 -5.8777685 13.396252 -5.5489092Q13.532471 -5.2200499 13.652388 -4.8849025Q13.772306 -4.5497551 13.875635 -4.2091274Q13.978964 -3.8684995 14.065453 -3.5232122Q14.151943 -3.1779246 14.221386 -2.8288093Q14.290829 -2.4796939 14.34306 -2.1275916Q14.395288 -1.7754893 14.43018 -1.4212484Q14.465069 -1.0670074 14.482534 -0.71148121Q14.5 -0.35595503 14.5 0Z"/>
	<path fill="#E0EBD6" transform="matrix(17.0079 0 -0 -17.0079 297.638 297.638)" d="M0 9.9000006L1.5553122 12.832874C1.643611 12.999381 1.5229169 13.2 1.3344467 13.2L-1.3344467 13.2C-1.5229169 13.2 -1.643611 12.999381 -1.5553122 12.832874L0 9.9000006Z"/>
</svg>
