<?xml version="1.0" encoding="utf-8" ?>
<svg xmlns="http://www.w3.org/2000/svg" xmlns:xlink="http://www.w3.org/1999/xlink" width="596" height="596">
	<path fill="#0F0F12" transform="matrix(17.0079 0 -0 -17.0079 297.638 297.638)" d="M14.5 0Q14.5 0.35595503 14.482534 0.71148121Q14.465069 1.0670074 14.43018 1.4212484Q14.395288 1.7754893 14.34306 2.1275916Q14.290829 2.4796939 14.221386 2.8288093Q14.151943 3.1779246 14.065453 3.523212Q13.978964 3.8684995 13.875635 4.2091274Q13.772306 4.5497551 13.652389 4.884902Q13.532471 5.2200499 13.396252 5.5489092Q13.260034 5.8777685 13.107843 6.1995478Q12.955653 6.5213275 12.787858 6.8352518Q12.620062 7.1491756 12.437063 7.4544883Q12.254066 7.7598009 12.056309 8.0557671Q11.858551 8.3517323 11.646508 8.6376381Q11.434466 8.9235439 11.208652 9.1987019Q10.982836 9.4738579 10.743791 9.7376041Q10.504745 10.001349 10.253048 10.253048Q10.001349 10.504745 9.7376041 10.743791Q9.4738579 10.982836 9.1987019 11.208652Q8.9235439 11.434466 8.6376381 11.646509Q8.3517323 11.858551 8.0557671 12.056309Q7.7598009 12.254066 7.4544888 12.437063Q7.1491756 12.620062 6.8352518 12.787858Q6.5213275 12.955653 6.1995478 13.107843Q5.8777685 13.260034 5.5489092 13.396252Q5.2200499 13.532471 4.8849025 13.652388Q4.5497551 13.772306 4.2091274 13.875635Q3.8684995 13.978964 3.5232122 14.065453Q3.1779246 14.151943 2.8288093 14.221386Q2.4796939 14.290829 2.1275916 14.34306Q1.7754893 14.395288 1.4212484 14.43018Q1.0670074 14.465069 0.71148121 14.482534Q0.35595503 14.5 0 14.5Q-0.35595503 14.5 -0.71148121 14.482534Q-1.0670074 14.465069 -1.4212484 14.43018Q-1.7754893 14.395288 -2.1275916 14.34306Q-2.4796939 14.290829 -2.8288093 14.221386Q-3.1779246 14.151943 -3.523212 14.065453Q-3.8684995 13.978964 -4.2091274 13.875635Q-4.5497551 13.772306 -4.884902 13.652389Q-5.2200499 13.532471 -5.5489092 13.396252Q-5.8777685 13.260034 -6.1995478 13.107843Q-6.5213275 12.955653 -6.8352518 12.787858Q-7.1491756 12.620062 -7.4544883 12.437063Q-7.7598009 12.254066 -8.0557671 12.056309Q-8.3517323 11.858551 -8.6376381 11.646508Q-8.9235439 11.434466 -9.1987019 11.208652Q-9.4738579 10.982836 -9.7376041 10.743791Q-10.001349 10.504745 -10.253048 10.253048Q-10.504745 10.001349 -10.743791 9.7376041Q-10.982836 9.4738579 -11.208652 9.1987019Q-11.434466 8.9235439 -11.646509 8.6376381Q-11.858551 8.3517323 -12.056309 8.0557671Q-12.254066 7.7598009 -12.437063 7.4544888Q-12.620062 7.1491756 -12.787858 6.8352518Q-12.955653 6.5213275 -13.107843 6.1995478Q-13.260034 5.8777685 -13.396252 5.5489092Q-13.532471 5.2200499 -13.652388 4.8849025Q-13.772306 4.5497551 -13.875635 4.2091274Q-13.978964 3.8684995 -14.065453 3.5232122Q-14.151943 3.1779246 -14.221386 2.8288093Q-14.290829 2.4796939 -14.34306 2.1275916Q-14.395288 1.7754893 -14.43018 1.4212484Q-14.465069 1.0670074 -14.482534 0.71148121Q-14.5 0.35595503 -14.5 0Q-14.5 -0.35595503 -14.482534 -0.71148121Q-14.465069 -1.0670074 -14.43018 -1.4212484Q-14.395288 -1.7754893 -14.34306 -2.1275916Q-14.290829 -2.4796939 -14.221386 -2.8288093Q-14.151943 -3.1779246 -14.065453 -3.523212Q-13.978964 -3.8684995 -13.875635 -4.2091274Q-13.772306 -4.5497551 -13.652389 -4.884902Q-13.532471 -5.2200499 -13.396252 -5.5489092Q-13.260034 -5.8777685 -13.107843 -6.1995478Q-12.955653 -6.5213275 -12.787858 -6.8352518Q-12.620062 -7.1491756 -12.437063 -7.4544883Q-12.254066 -7.7598009 -12.056309 -8.0557671Q-11.858551 -8.3517323 -11.646508 -8.6376381Q-11.434466 -8.9235439 -11.208652 -9.1987019Q-10.982836 -9.4738579 -10.743791 -9.7376041Q-10.504745 -10.001349 -10.253048 -10.253048Q-10.001349 -10.504745 -9.7376041 -10.743791Q-9.4738579 -10.982836 -9.1987019 -11.208652Q-8.9235439 -11.434466 -8.6376381 -11.646509Q-8.3517323 -11.858551 -8.0557671 -12.056309Q-7.7598009 -12.254066 -7.4544888 -12.437063Q-7.1491756 -12.620062 -6.8352518 -12.787858Q-6.5213275 -12.955653 -6.1995478 -13.107843Q-5.8777685 -13.260034 -5.5489092 -13.396252Q-5.2200499 -13.532471 -4.8849025 -13.652388Q-4.5497551 -13.772306 -4.2091274 -13.875635Q-3.8684995 -13.978964 -3.5232122 -14.065453Q-3.1779246 -14.151943 -2.8288093 -14.221386Q-2.4796939 -14.290829 -2.1275916 -14.34306Q-1.7754893 -14.395288 -1.4212484 -14.43018Q-1.0670074 -14.465069 -0.71148121 -14.482534Q-0.35595503 -14.5 0 -14.5Q0.35595503 -14.5 0.71148121 -14.482534Q1.0670074 -14.465069 1.4212484 -14.43018Q1.7754893 -14.395288 2.1275916 -14.34306Q2.4796939 -14.290829 2.8288093 -14.221386Q3.1779246 -14.151943 3.523212 -14.065453Q3.8684995 -13.978964 4.2091274 -13.875635Q4.5497551 -13.772306 4.884902 -13.652389Q5.2200499 -13.532471 5.5489092 -13.396252Q5.8777685 -13.260034 6.1995478 -13.107843Q6.5213275 -12.955653 6.8352518 -12.787858Q7.1491756 -12.620062 7.4544883 -12.437063Q7.7598009 -12.254066 8.0557671 -12.056309Q8.3517323 -11.858551 8.6376381 -11.646508Q8.9235439 -11.434466 9.1987019 -11.208652Q9.4738579 -10.982836 9.7376041 -10.743791Q10.001349 -10.504745 10.253048 -10.253048Q10.504745 -10.001349 10.743791 -9.7376041Q10.982836 -9.4738579 11.208652 -9.1987019Q11.434466 -8.9235439 11.646509 -8.6376381Q11.858551 -8.3517323 12.056309 -8.0557671Q12.254066 -7.7598009 12.437063 -7.4544888Q12.620062 -7.1491756 12.787858 -6.8352518Q12.955653 -6.5213275 13.107843 -6.1995478Q13.260034 -5.8777685 13.396252 -5.5489092Q13.532471 -5.2200499 13.652388 -4.8849025Q13.772306 -4.5497551 13.875635 -4.2091274Q13.978964 -3.8684995 14.065453 -3.5232122Q14.151943 -3.1779246 14.221386 -2.8288093Q14.290829 -2.4796939 14.34306 -2.1275916Q14.395288 -1.7754893 14.43018 -1.4212484Q14.465069 -1.0670074 14.482534 -0.71148121Q14.5 -0.35595503 14.5 0Z"/>
	<path fill="#F7F7F2" transform="matrix(17.0079 0 -0 -17.0079 297.638 297.638)" d="M-2.7530537 -4.7159305L-2.7977653 -4.7858963L-3.1694832 -4.5483499L-3.1320155 -4.4897194Q-3.0874171 -4.4604177 -3.0398722 -4.4437342Q-2.992327 -4.4270501 -2.9418621 -4.4182882Q-2.891397 -4.4095259 -2.8401561 -4.4042869Q-2.8102303 -4.401391 -2.7848375 -4.396975Q-2.759445 -4.3925581 -2.7390852 -4.387403Q-2.7046306 -4.3791437 -2.6778305 -4.3643413Q-2.6510308 -4.3495393 -2.6335456 -4.3221784Q-2.6065686 -4.279964 -2.6159244 -4.2420568Q-2.6252801 -4.2041497 -2.6686666 -4.1764235Q-2.7104897 -4.1496964 -2.7505794 -4.1560059Q-2.7906687 -4.1623149 -2.822727 -4.201282L-2.9032996 -4.1404333Q-2.8506296 -4.0761042 -2.777324 -4.0673499Q-2.7040186 -4.0585952 -2.6258445 -4.1085525Q-2.5406346 -4.1630058 -2.520256 -4.231904Q-2.4998775 -4.3008027 -2.5463374 -4.3735042Q-2.5688181 -4.4086828 -2.6047401 -4.4308681Q-2.640662 -4.453053 -2.6882877 -4.4655561Q-2.7172263 -4.4729366 -2.7598946 -4.4789743Q-2.802563 -4.4850116 -2.8570073 -4.4909563Q-2.9163268 -4.4976377 -2.9588983 -4.5086923Q-3.0014696 -4.5197468 -3.0297899 -4.5390821L-2.7530537 -4.7159305ZM-2.1444497 -4.7561197Q-2.2183831 -4.9027429 -2.3084848 -4.9536781Q-2.3985863 -5.004612 -2.4996486 -4.9536524Q-2.5998828 -4.9031105 -2.6119854 -4.8014193Q-2.6240883 -4.6997285 -2.5495281 -4.5518627Q-2.4730885 -4.4002686 -2.3869324 -4.3504615Q-2.300776 -4.3006549 -2.1939149 -4.3545384Q-2.0907815 -4.4065423 -2.0800221 -4.5067768Q-2.0692632 -4.6070108 -2.1444497 -4.7561197ZM-2.2339149 -4.7110076Q-2.1923535 -4.6285834 -2.1776423 -4.5726218Q-2.1629314 -4.5166612 -2.1759846 -4.4812465Q-2.1890378 -4.4458323 -2.2300427 -4.4251561Q-2.2718759 -4.4040623 -2.3088355 -4.4139981Q-2.3457949 -4.423934 -2.382251 -4.4689312Q-2.4187069 -4.5139275 -2.4604771 -4.596766Q-2.5014122 -4.677947 -2.5156062 -4.7344289Q-2.5297999 -4.7909102 -2.5164373 -4.8267407Q-2.5030744 -4.8625712 -2.462898 -4.8828297Q-2.4024262 -4.913322 -2.3481405 -4.8716011Q-2.2938554 -4.8298802 -2.2339149 -4.7110076ZM-1.6509768 -4.9491019Q-1.7096568 -5.102468 -1.7941276 -5.1622796Q-1.8785981 -5.2220907 -1.9843082 -5.1816444Q-2.0891519 -5.14153 -2.1115065 -5.0415912Q-2.1338613 -4.9416523 -2.0746839 -4.7869859Q-2.0140145 -4.6284208 -1.9333546 -4.5701318Q-1.8526946 -4.5118423 -1.7409191 -4.5546093Q-1.6330428 -4.5958843 -1.6121725 -4.6945105Q-1.591302 -4.7931361 -1.6509768 -4.9491019ZM-1.7445563 -4.9132972Q-1.7115694 -4.8270831 -1.7026105 -4.769918Q-1.6936517 -4.7127528 -1.7102294 -4.6788449Q-1.7268072 -4.6449375 -1.7696979 -4.6285272Q-1.8134549 -4.6117849 -1.8492161 -4.6254191Q-1.8849772 -4.6390529 -1.9166812 -4.6875153Q-1.948385 -4.7359772 -1.9815376 -4.8226247Q-2.0140271 -4.9075394 -2.022419 -4.9651699Q-2.0308111 -5.0228 -2.0138829 -5.0570903Q-1.9969547 -5.0913801 -1.9549307 -5.1074595Q-1.8916779 -5.1316609 -1.841904 -5.0846486Q-1.7921304 -5.0376368 -1.7445563 -4.9132972ZM-1.2080729 -5.1207919L-1.2605089 -5.399322L-1.3576069 -5.3810425L-1.2849174 -4.9949303Q-1.2769361 -4.9525347 -1.272771 -4.92665Q-1.2686059 -4.9007654 -1.2674848 -4.8872881L-1.1754012 -4.904624Q-1.17612 -4.9134569 -1.1780699 -4.9300823Q-1.1800197 -4.9467077 -1.1826401 -4.9643869Q-1.1852604 -4.9820666 -1.1875776 -4.9943748L-1.18621 -4.9946322Q-1.150555 -4.9456463 -1.1117475 -4.9300594Q-1.0729399 -4.9144731 -1.0237072 -4.9237418Q-0.96763641 -4.9342976 -0.93882132 -4.9642668Q-0.91000628 -4.9942365 -0.90722412 -5.0471539L-0.90540069 -5.0474973Q-0.87000328 -4.9998798 -0.82992727 -4.9838233Q-0.78985131 -4.9677672 -0.73742747 -4.9776368Q-0.66357827 -4.9915395 -0.63640207 -5.0414972Q-0.60922593 -5.091455 -0.62656152 -5.1835384L-0.68749374 -5.5071983L-0.78413594 -5.4890041L-0.72749472 -5.1881371Q-0.71445012 -5.1188469 -0.72814661 -5.0862951Q-0.7418431 -5.0537438 -0.78834081 -5.0449901Q-0.83666188 -5.0358934 -0.87217689 -5.0690923Q-0.90769196 -5.1022916 -0.92090827 -5.1724939L-0.97377342 -5.4533033L-1.0704156 -5.4351091L-1.0137744 -5.1342421Q-1.0007298 -5.0649519 -1.0146542 -5.0323572Q-1.0285786 -4.999763 -1.0750762 -4.9910092Q-1.1229415 -4.9819984 -1.1589419 -5.0165219Q-1.1949425 -5.0510459 -1.2080729 -5.1207919ZM0.16659787 -5.201458L0.16932803 -5.3169289L0.064523354 -5.3194065L0.061793182 -5.2039356L0.16659787 -5.201458ZM1.3112414 -5.1664152Q1.3325334 -5.268117 1.2891297 -5.3381028Q1.2457261 -5.4080892 1.147657 -5.4286208Q1.0377831 -5.4516234 0.96271181 -5.3839293Q0.88764048 -5.316236 0.85532248 -5.1618681Q0.82015276 -4.9938793 0.86187059 -4.8932033Q0.90358847 -4.7925282 1.0152783 -4.769145Q1.0906464 -4.7533665 1.1438112 -4.7775435Q1.1969761 -4.8017201 1.230303 -4.8658314L1.141273 -4.9001107Q1.1046302 -4.83148 1.0297164 -4.8471637Q0.96615297 -4.8604708 0.94342875 -4.9284973Q0.92070442 -4.9965239 0.94522816 -5.1136622Q0.95884669 -5.0700531 0.99361539 -5.0414476Q1.0283841 -5.0128422 1.0783267 -5.0023861Q1.1659533 -4.9840407 1.2288069 -5.0284638Q1.2916605 -5.0728865 1.3112414 -5.1664152ZM1.2139328 -5.1905794Q1.2004352 -5.1261077 1.162063 -5.0978861Q1.123691 -5.069665 1.068754 -5.0811663Q1.0165412 -5.0920973 0.99109125 -5.130126Q0.9656412 -5.1681547 0.97685748 -5.2217298Q0.98636276 -5.2671323 1.0088917 -5.2989073Q1.0314206 -5.3306832 1.0623903 -5.3450518Q1.0933601 -5.3594208 1.1283199 -5.3521018Q1.1818947 -5.3408856 1.2046626 -5.2979684Q1.2274303 -5.2550507 1.2139328 -5.1905794ZM1.8285086 -5.0067711Q1.8600063 -5.1057887 1.8239251 -5.1798158Q1.7878442 -5.2538433 1.6923633 -5.2842159Q1.5853894 -5.3182445 1.5038389 -5.2585144Q1.4222885 -5.1987844 1.3744797 -5.0484905Q1.3224522 -4.8849354 1.3537433 -4.7805476Q1.3850346 -4.6761603 1.4937767 -4.6415691Q1.5671555 -4.6182275 1.6224985 -4.6368871Q1.6778414 -4.6555467 1.7174994 -4.7159472L1.6324053 -4.759079Q1.5889903 -4.6945195 1.5160536 -4.717721Q1.4541678 -4.7374072 1.4384608 -4.8073874Q1.4227536 -4.8773675 1.4590322 -4.9914141Q1.4681572 -4.9466491 1.4998451 -4.9146643Q1.531533 -4.8826799 1.5801575 -4.8672123Q1.6654714 -4.8400736 1.7325068 -4.877892Q1.7995422 -4.9157109 1.8285086 -5.0067711ZM1.7341527 -5.0406804Q1.7141854 -4.9779105 1.6731486 -4.9537263Q1.6321118 -4.9295425 1.5786248 -4.946557Q1.5277901 -4.9627275 1.5063286 -5.0031414Q1.4848671 -5.0435557 1.5014597 -5.095717Q1.5155212 -5.1399212 1.5411568 -5.1692472Q1.5667925 -5.1985741 1.5990599 -5.2097273Q1.6313273 -5.220881 1.6653645 -5.2100534Q1.7175254 -5.1934609 1.7358227 -5.1484556Q1.7541199 -5.1034498 1.7341527 -5.0406804ZM2.2835443 -4.6909232Q2.348937 -4.8415499 2.330442 -4.9433866Q2.3119464 -5.0452223 2.2081249 -5.0902953Q2.105154 -5.1349988 2.0192537 -5.0792437Q1.9333535 -5.0234885 1.8674065 -4.8715849Q1.7997969 -4.7158523 1.8166348 -4.6177707Q1.8334726 -4.5196881 1.9432514 -4.4720287Q2.0492005 -4.4260321 2.1331217 -4.4818878Q2.2170432 -4.5377436 2.2835443 -4.6909232ZM2.1916366 -4.730824Q2.1548762 -4.6461501 2.1212764 -4.5990419Q2.0876772 -4.5519342 2.0521078 -4.53931Q2.0165384 -4.5266862 1.9744139 -4.5449743Q1.9314386 -4.5636315 1.9154303 -4.5983944Q1.8994219 -4.6331573 1.9106828 -4.6899638Q1.9219435 -4.7467694 1.9588886 -4.8318691Q1.9950949 -4.915267 2.0294249 -4.9623103Q2.0637553 -5.0093546 2.0998423 -5.022006Q2.1359298 -5.0346584 2.1772032 -5.0167398Q2.239326 -4.9897699 2.2419894 -4.9213562Q2.2446527 -4.8529425 2.1916366 -4.730824ZM2.6557631 -4.3629084L2.8771384 -4.7337136L2.7923031 -4.7843614L2.5709279 -4.4135561L2.5095918 -4.4501743L2.4736869 -4.3900337L2.535023 -4.3534155L2.5067267 -4.3060188Q2.4715352 -4.2470727 2.4832847 -4.2038612Q2.4950345 -4.1606503 2.5515912 -4.1268854Q2.5822592 -4.1085763 2.6122732 -4.0982208L2.6481783 -4.1583619Q2.6283531 -4.1658754 2.6140149 -4.1744356Q2.5861347 -4.1910806 2.5818338 -4.2114768Q2.577533 -4.2318721 2.5977445 -4.2657266L2.6198583 -4.3027678L2.7042949 -4.252358L2.7401998 -4.3124986L2.6557631 -4.3629084ZM3.1993849 -4.517621Q3.171232 -4.5522237 3.1296699 -4.5801945Q3.0861838 -4.6094599 3.047225 -4.6001735Q3.0082664 -4.5908875 2.9753749 -4.5420141L2.7956362 -4.2749391L2.7459924 -4.3083487L2.7068851 -4.2502389L2.7599924 -4.2144985L2.7212951 -4.1029949L2.7747869 -4.0669951L2.8384984 -4.1616645L2.9158502 -4.1096077L2.9549575 -4.1677175L2.8776057 -4.2197742L3.0438769 -4.4668379Q3.064337 -4.4972396 3.0834038 -4.5031385Q3.1024704 -4.509038 3.1267152 -4.492722Q3.1390297 -4.4844341 3.1615727 -4.4614353L3.1993849 -4.517621Z"/>
</svg>
